<svg width="137" height="143" viewBox="0 0 137 143" fill="none" xmlns="http://www.w3.org/2000/svg">
<rect width="137" height="143" fill="white"/>
<path d="M26.3599 58.4885L60.8093 38.9999V54.1753L39.3447 65.9859L26.3599 58.4885ZM24 60.6225L24 101.372L36.601 94.0896V67.8941L24 60.6225ZM98.2847 58.4885L63.8353 38.9999V54.1753L85.3111 65.9859L98.2847 58.4885ZM100.645 60.6225L100.645 101.372L88.0436 94.0896V67.8941L100.645 60.6225ZM99.1654 104.015L63.8353 124V109.333L86.4741 96.8785L86.6548 96.7769L99.1654 104.015Z" fill="#8ED6FB"/>
<path d="M60.8093 106.702L39.6271 95.0493V71.9814L60.8093 84.2098V106.702ZM63.8354 106.702L85.0176 95.0606V71.9814L63.8354 84.2098V106.702ZM41.0611 69.3167L62.3223 57.6304L83.5836 69.3167L62.3223 81.5902L41.0611 69.3167Z" fill="#1C78C0"/>
<path d="M22 110.226L57.3301 130.212V115.544L34.6913 103.102L34.5106 103L22 110.226Z" fill="#FF4C00"/>
<circle cx="84" cy="42" r="36" fill="white"/>
<circle cx="84" cy="42" r="24" fill="white" stroke="black" stroke-width="8"/>
<rect x="81" y="26" width="6" height="20" rx="3" fill="#FF4C00"/>
<rect x="80" y="48" width="8" height="8" rx="4" fill="#FF4C00"/>
<path d="M98.5355 56.5355C100.488 54.5829 103.654 54.5829 105.607 56.5355L115.506 66.435C117.459 68.3877 117.459 71.5535 115.506 73.5061C113.553 75.4587 110.388 75.4587 108.435 73.5061L98.5355 63.6066C96.5829 61.654 96.5829 58.4882 98.5355 56.5355Z" fill="black"/>
</svg>
